<?xml version="1.0" encoding="utf-8"?>
<!-- Generator: Adobe Illustrator 23.0.0, SVG Export Plug-In . SVG Version: 6.00 Build 0)  -->
<svg version="1.1" id="Слой_1" xmlns="http://www.w3.org/2000/svg" xmlns:xlink="http://www.w3.org/1999/xlink" x="0px" y="0px"
	 viewBox="0 0 163 113" style="enable-background:new 0 0 163 113;" xml:space="preserve">
<style type="text/css">
	.st0{fill:#ED1E79;}
	.st1{fill:#29ABE2;}
	.st2{fill:#662D91;}
</style>
<g>
	<g>
		<path class="st0" d="M18.3,11.2c3-1.1,7.5-4,4.6-7.6c-3.3-4.2-8.4-2.8-10.9,1c-1.6,2.4-3.2,5.7-3.5,8.7c-0.3,2.9,1.2,4,3.2,5.9
			c1.5,1.4,3,2.8,4.5,4.3c1.5,1.4,5.3,4.3,3.3,6C16.5,32,7.1,29.8,3.7,29.3C1.8,29,1,31.9,2.9,32.2c5.4,0.9,12.1,2,17.6,0.8
			c2-0.5,2.9-1,2.9-3.1c0.1-3.9-4-7.3-6.5-9.6c-2.8-2.7-5.7-5-4.7-9.3c0.3-1.2,1.1-3,1.9-4c2.4-3.6,4-3.9,4.6-1.1
			c1.3,1.5,0.9,2.3-1.2,2.6C15.7,9,16.5,11.9,18.3,11.2L18.3,11.2z"/>
	</g>
	<g>
		<path class="st0" d="M27,20c0,2.3-0.3,8.5,3,9c1.3,0.2,2.1-0.8,2.5-1.9c1-2.1,1.7-4.4,2.5-6.5c-1,0-1.9,0-2.9,0
			c1.1,3.8,2.5,7.5,4.2,11c0.8,1.7,3.4,0.2,2.6-1.5c-1.6-3.3-2.9-6.8-3.9-10.3c-0.4-1.5-2.4-1.3-2.9,0c-0.4,1.1-0.8,2.2-1.2,3.3
			c-0.1,0.3-0.9,3-1.1,3c0.4,0.1,0.8,0.1,1.2,0.2C29.7,25.5,30,21.4,30,20C30,18,27,18,27,20L27,20z"/>
	</g>
	<g>
		<path class="st0" d="M45.4,19.8c-0.8-0.9-1.8-2-3.1-2.2c-0.7-0.1-1.3,0.1-1.7,0.7c-1,1.6-1.1,4-1.2,5.9c-0.2,1.9-0.2,3.7,0.8,5.3
			c2,3.5,6.3,4.1,9.9,4.4c1.9,0.1,1.9-2.9,0-3c-2.6-0.2-5.9-0.4-7.3-2.9c-1-1.8-0.8-6.3,0.4-8.1c-0.6,0.2-1.1,0.5-1.7,0.7
			c0.7,0.1,1.3,0.9,1.7,1.4C44.5,23.4,46.6,21.3,45.4,19.8L45.4,19.8z"/>
	</g>
	<g>
		<path class="st0" d="M48.7,5.8c1.9,10.8,3.8,21.6,5.7,32.4c0.3,1.9,3.2,1.1,2.9-0.8C55.4,26.6,53.5,15.8,51.6,5
			C51.2,3.1,48.3,3.9,48.7,5.8L48.7,5.8z"/>
	</g>
	<g>
		<path class="st0" d="M56.3,20.6c-0.5,1.5-1,3.1-1.5,4.7c-0.3,1.1-1,2.5-0.9,3.7c0.1,0.8,0.6,1.5,1.5,1.5c2.2,0,2.7,1.4,2.9,3.3
			c0.3,1.9,3.2,1.1,2.9-0.8c-0.2-1.7-0.6-3.4-2-4.6c-1.2-1-2.4-0.9-3.8-0.9c0.5,0.5,1,1,1.5,1.5c-0.1-1.1,0.7-2.8,1-3.8
			c0.4-1.3,0.8-2.5,1.3-3.8C59.9,19.6,57,18.8,56.3,20.6L56.3,20.6z"/>
	</g>
	<g>
		<path class="st0" d="M62.7,26.5c16,0,32,0,48,0c0.6,0,0.6-1,0-1c-16,0-32,0-48,0C62,25.5,62,26.5,62.7,26.5L62.7,26.5z"/>
	</g>
	<g>
		<path class="st0" d="M68.1,1.2c0,3.9,0,7.9,0,11.8c0,4.2,0.2,8.4-0.5,12.5c0.2-0.1,0.4-0.2,0.6-0.3c-2.5-0.4-3.7-2.4-4.1-4.7
			c-0.2-1-0.3-2.1,0-3.2c0.5-2,2.8-4.3,4.8-1.8c0.4,0.5,1.1-0.2,0.7-0.7c-2.4-3-6-0.4-6.5,2.7c-0.6,3.6,0.9,8,4.8,8.7
			c0.2,0,0.6-0.1,0.6-0.3C69.3,22,69.2,18,69.2,14c0-4.3,0-8.5,0-12.8C69.1,0.6,68.1,0.6,68.1,1.2L68.1,1.2z"/>
	</g>
	<g>
		<path class="st0" d="M72.6,20c1.3,0.2,3,0.8,3.9-0.4c0.9-1.1,1.1-3.2,1.2-4.5c0.2-2.4-1.6-5.1-4.2-3.4c-2.8,2-2.1,6.6-1.1,9.3
			c0.4,1.2,0.9,2.6,2.1,3.4c1.4,0.9,3.5,1.3,5.2,1.1c0.6-0.1,0.6-1.1,0-1c-1.8,0.2-4.2-0.3-5.4-1.7c-1-1.2-1.5-3.7-1.7-5.3
			c-0.1-1-0.1-2,0.2-3C73,13,74,13,75,13c1,1,2.2,1.7,1.6,3.1c-0.2,1.1-0.4,2.8-1.8,3.1c-0.6,0.2-1.7-0.2-2.2-0.3
			C71.9,18.9,71.9,19.9,72.6,20L72.6,20z"/>
	</g>
	<g>
		<path class="st0" d="M83.4,18.3c3.4-3-2.5-6.5-3.6-3c-0.6,1.9,1.6,4.1,2.7,5.3c0.6,0.7,1.2,1.3,1.9,1.9c0.5,0.5,1.8,1.2,2.1,1.8
			c0.9,1.9-0.9,1.7-2,1.7c-1.3,0.1-3.5,0.2-4.5-0.8c-0.4-0.5-1.1,0.2-0.7,0.7c1.2,1.3,3.6,1.2,5.2,1.1c1.1-0.1,3.2,0,3.6-1.4
			c0.4-1.2-1-2.1-1.8-2.8c-1-0.8-1.9-1.7-2.8-2.7c-0.6-0.6-1.1-1.3-1.6-2c-0.1-0.2-0.3-0.4-0.4-0.6c-0.8-1-0.4-1,1.3,0
			C82.2,18.1,82.9,18.8,83.4,18.3L83.4,18.3z"/>
	</g>
	<g>
		<path class="st0" d="M89,15c-0.3,3.1-0.6,6.3,0.5,9.3c0.2,0.6,1.2,0.3,1-0.3c-1-3-0.8-6-0.4-9C90.1,14.3,89.1,14.3,89,15L89,15z"
			/>
	</g>
	<g>
		<path class="st0" d="M87.3,11.4c-0.3,1.6-1,4.1,0.5,5.3c0.7,0.6,2.7,0.9,3.4,0.2c1.2-1.3-1-3.9-1.5-4.9c-1.7-3-3.5-6-5.4-8.8
			c-0.2-0.3-0.8-0.3-0.9,0.1c-0.1,0.5-0.2,0.9-0.3,1.4c-0.1,0.6,0.8,0.9,1,0.3c0.1-0.5,0.2-0.9,0.3-1.4c-0.3,0-0.6,0.1-0.9,0.1
			c1.6,2.4,3.1,4.8,4.5,7.3c0.6,1.1,1.6,2.3,2,3.5c0.2,0.6,0.7,1.2,0,1.8c-1.5-0.5-2.2-1.3-2-2.5c0-0.7,0.1-1.4,0.3-2.1
			C88.4,11,87.4,10.7,87.3,11.4L87.3,11.4z"/>
	</g>
	<g>
		<path class="st0" d="M93.7,16.8c-1.5,1.6-2.2,4.1-1.5,6.2c0.5,1.5,2.8,3.1,4.4,2.3c1.8-0.8,0.9-3.5,0.2-4.7
			c-0.4-0.8-1.9-4.2-3.1-2.1c-0.3,0.6,0.6,1.1,0.9,0.5c0.1-0.2,1.4,2.1,1.5,2.4c0.5,1.2,1,3.6-1.2,2.9c-2.9-0.9-2.1-5-0.5-6.8
			C94.8,17.1,94.1,16.4,93.7,16.8L93.7,16.8z"/>
	</g>
	<g>
		<path class="st0" d="M94.3,19.4c1.6,4.5,2.4,9.2,2.3,13.9c0,1.6,0.3,5.2-2.8,4.4c-0.6-0.2-1.4-1-1.9-1.4c-2.1-1.6-4.2-3.3-6.3-5
			c-0.5-0.4-1.2,0.3-0.7,0.7c2.6,2.1,5.2,4.3,8,6.2c1.4,0.9,2.9,1.2,4-0.4c1.5-2.1,0.9-6.2,0.7-8.6c-0.3-3.5-1.1-6.9-2.2-10.2
			C95,18.5,94.1,18.8,94.3,19.4L94.3,19.4z"/>
	</g>
	<g>
		<path class="st0" d="M98.8,16.3c0,3.1,0,6.2,0,9.4c0,0.6,0.8,0.7,1,0.1c0.3-1.1,0.2-2,0-3.1c-0.1-0.6-0.5-1.6-0.3-2.3
			c1.2-1.5,1.9-1.8,2.4-0.8c0.3,0.5,0.6,1.1,0.7,1.7c1,3.1,0.6,6.6,0.4,9.8c-0.4,6.5,0.1,12,2.6,18.1c0.2,0.6,1.2,0.3,1-0.3
			c-1.8-4.5-2.9-8.8-2.7-13.7c0.1-4.3,0.9-8.8,0-13c-0.3-1.6-1.3-5.4-3.7-4.6c-3.1,1.1-0.7,6-1.2,8c0.3,0,0.7,0.1,1,0.1
			c0-3.1,0-6.2,0-9.4C99.8,15.7,98.8,15.7,98.8,16.3L98.8,16.3z"/>
	</g>
</g>
<g>
	<g>
		<path class="st1" d="M121.6,93.4c-1.1-3-4-7.5-7.6-4.6c-4.2,3.3-2.8,8.4,1,10.9c2.4,1.6,5.7,3.2,8.7,3.5c2.9,0.3,4-1.2,5.9-3.2
			c1.4-1.5,2.8-3,4.3-4.5c1.4-1.5,4.3-5.3,6-3.3c2.5,2.8,0.3,12.3-0.2,15.7c-0.3,1.9,2.6,2.7,2.9,0.8c0.9-5.4,2-12.1,0.8-17.6
			c-0.5-2-1-2.9-3.1-2.9c-3.9-0.1-7.3,4-9.6,6.5c-2.7,2.8-5,5.7-9.3,4.7c-1.2-0.3-3-1.1-4-1.9c-3.6-2.4-3.9-4-1.1-4.6
			c1.5-1.3,2.3-0.9,2.6,1.2C119.4,95.9,122.3,95.2,121.6,93.4L121.6,93.4z"/>
	</g>
	<g>
		<path class="st1" d="M130.4,84.6c2.3,0,8.5,0.3,9-3c0.2-1.3-0.8-2.1-1.9-2.5c-2.1-1-4.4-1.7-6.5-2.5c0,1,0,1.9,0,2.9
			c3.8-1.1,7.5-2.5,11-4.2c1.7-0.8,0.2-3.4-1.5-2.6c-3.3,1.6-6.8,2.9-10.3,3.9c-1.5,0.4-1.3,2.4,0,2.9c1.1,0.4,2.2,0.8,3.3,1.2
			c0.3,0.1,3,0.9,3,1.1c0.1-0.4,0.1-0.8,0.2-1.2c-0.7,1.2-4.8,0.9-6.3,0.9C128.4,81.6,128.4,84.6,130.4,84.6L130.4,84.6z"/>
	</g>
	<g>
		<path class="st1" d="M130.2,66.3c-0.9,0.8-2,1.8-2.2,3.1c-0.1,0.7,0.1,1.3,0.7,1.7c1.6,1,4,1.1,5.9,1.2c1.9,0.2,3.7,0.2,5.3-0.8
			c3.5-2,4.1-6.3,4.4-9.9c0.1-1.9-2.9-1.9-3,0c-0.2,2.6-0.4,5.9-2.9,7.3c-1.8,1-6.3,0.8-8.1-0.4c0.2,0.6,0.5,1.1,0.7,1.7
			c0.1-0.7,0.9-1.3,1.4-1.7C133.8,67.1,131.7,65,130.2,66.3L130.2,66.3z"/>
	</g>
	<g>
		<path class="st1" d="M116.2,62.9c10.8-1.9,21.6-3.8,32.4-5.7c1.9-0.3,1.1-3.2-0.8-2.9c-10.8,1.9-21.6,3.8-32.4,5.7
			C113.5,60.4,114.3,63.3,116.2,62.9L116.2,62.9z"/>
	</g>
	<g>
		<path class="st1" d="M131,55.3c1.5,0.5,3.1,1,4.7,1.5c1.1,0.3,2.5,1,3.7,0.9c0.8-0.1,1.5-0.6,1.5-1.5c0-2.2,1.4-2.7,3.3-2.9
			c1.9-0.3,1.1-3.2-0.8-2.9c-1.7,0.2-3.4,0.6-4.6,2c-1,1.2-0.9,2.4-0.9,3.8c0.5-0.5,1-1,1.5-1.5c-1.1,0.1-2.8-0.7-3.8-1
			c-1.3-0.4-2.5-0.8-3.8-1.3C130,51.8,129.2,54.7,131,55.3L131,55.3z"/>
	</g>
	<g>
		<path class="st1" d="M136.9,49c0-16,0-32,0-48c0-0.6-1-0.6-1,0c0,16,0,32,0,48C135.9,49.6,136.9,49.6,136.9,49L136.9,49z"/>
	</g>
	<g>
		<path class="st1" d="M111.6,43.5c3.9,0,7.9,0,11.8,0c4.2,0,8.4-0.2,12.5,0.5c-0.1-0.2-0.2-0.4-0.3-0.6c-0.4,2.5-2.4,3.7-4.7,4.1
			c-1,0.2-2.1,0.3-3.2,0c-2-0.5-4.3-2.8-1.8-4.8c0.5-0.4-0.2-1.1-0.7-0.7c-3,2.4-0.4,6,2.7,6.5c3.6,0.6,8-0.9,8.7-4.8
			c0-0.2-0.1-0.6-0.3-0.6c-3.9-0.7-7.9-0.6-11.8-0.6c-4.3,0-8.5,0-12.8,0C111,42.5,111,43.5,111.6,43.5L111.6,43.5z"/>
	</g>
	<g>
		<path class="st1" d="M130.4,39.1c0.2-1.3,0.8-3-0.4-3.9c-1.1-0.9-3.2-1.1-4.5-1.2c-2.4-0.2-5.1,1.6-3.4,4.2c2,2.8,6.6,2.1,9.3,1.1
			c1.2-0.4,2.6-0.9,3.4-2.1c0.9-1.4,1.3-3.5,1.1-5.2c-0.1-0.6-1.1-0.6-1,0c0.2,1.8-0.3,4.2-1.7,5.4c-1.2,1-3.7,1.5-5.3,1.7
			c-1,0.1-2,0.1-3-0.2c-1.5-0.2-1.6-1.2-1.6-2.2c1-1,1.7-2.2,3.1-1.6c1.1,0.2,2.8,0.4,3.1,1.8c0.2,0.6-0.2,1.7-0.3,2.2
			C129.3,39.7,130.3,39.7,130.4,39.1L130.4,39.1z"/>
	</g>
	<g>
		<path class="st1" d="M128.7,28.2c-3-3.4-6.5,2.5-3,3.6c1.9,0.6,4.1-1.6,5.3-2.7c0.7-0.6,1.3-1.2,1.9-1.9c0.5-0.5,1.2-1.8,1.8-2.1
			c1.9-0.9,1.7,0.9,1.7,2c0.1,1.3,0.2,3.5-0.8,4.5c-0.5,0.4,0.2,1.1,0.7,0.7c1.3-1.2,1.2-3.6,1.1-5.2c-0.1-1.1,0-3.2-1.4-3.6
			c-1.2-0.4-2.1,1-2.8,1.8c-0.8,1-1.7,1.9-2.7,2.8c-0.6,0.6-1.3,1.1-2,1.6c-0.2,0.1-0.4,0.3-0.6,0.4c-1,0.8-1,0.4,0-1.3
			C128.4,29.4,129.2,28.7,128.7,28.2L128.7,28.2z"/>
	</g>
	<g>
		<path class="st1" d="M125.4,22.6c3.1,0.3,6.3,0.6,9.3-0.5c0.6-0.2,0.3-1.2-0.3-1c-3,1-6,0.8-9,0.4
			C124.7,21.6,124.7,22.6,125.4,22.6L125.4,22.6z"/>
	</g>
	<g>
		<path class="st1" d="M121.8,24.3c1.6,0.3,4.1,1,5.3-0.5c0.6-0.7,0.9-2.7,0.2-3.4c-1.3-1.2-3.9,1-4.9,1.5c-3,1.7-6,3.5-8.8,5.4
			c-0.3,0.2-0.3,0.8,0.1,0.9c0.5,0.1,0.9,0.2,1.4,0.3c0.6,0.1,0.9-0.8,0.3-1c-0.5-0.1-0.9-0.2-1.4-0.3c0,0.3,0.1,0.6,0.1,0.9
			c2.4-1.6,4.8-3.1,7.3-4.5c1.1-0.6,2.3-1.6,3.5-2c0.6-0.2,1.2-0.7,1.8,0c-0.5,1.5-1.3,2.2-2.5,2c-0.7,0-1.4-0.1-2.1-0.3
			C121.4,23.3,121.1,24.2,121.8,24.3L121.8,24.3z"/>
	</g>
	<g>
		<path class="st1" d="M127.2,17.9c1.6,1.5,4.1,2.2,6.2,1.5c1.5-0.5,3.1-2.8,2.3-4.4c-0.8-1.8-3.5-0.9-4.7-0.2
			c-0.8,0.4-4.2,1.9-2.1,3.1c0.6,0.3,1.1-0.6,0.5-0.9c-0.2-0.1,2.1-1.4,2.4-1.5c1.2-0.5,3.6-1,2.9,1.2c-0.9,2.9-5,2.1-6.8,0.5
			C127.5,16.8,126.8,17.5,127.2,17.9L127.2,17.9z"/>
	</g>
	<g>
		<path class="st1" d="M129.8,17.3c4.5-1.6,9.2-2.4,13.9-2.3c1.6,0,5.2-0.3,4.4,2.8c-0.2,0.6-1,1.4-1.4,1.9c-1.6,2.1-3.3,4.2-5,6.3
			c-0.4,0.5,0.3,1.2,0.7,0.7c2.1-2.6,4.3-5.2,6.2-8c0.9-1.4,1.2-2.9-0.4-4c-2.1-1.5-6.2-0.9-8.6-0.7c-3.5,0.3-6.9,1.1-10.2,2.2
			C128.9,16.6,129.2,17.5,129.8,17.3L129.8,17.3z"/>
	</g>
	<g>
		<path class="st1" d="M126.7,12.8c3.1,0,6.2,0,9.4,0c0.6,0,0.7-0.8,0.1-1c-1.1-0.3-2-0.2-3.1,0c-0.6,0.1-1.6,0.5-2.3,0.3
			c-1.5-1.2-1.8-1.9-0.8-2.4c0.5-0.3,1.1-0.6,1.7-0.7c3.1-1,6.6-0.6,9.8-0.4c6.5,0.4,12-0.1,18.1-2.6c0.6-0.2,0.3-1.2-0.3-1
			c-4.5,1.8-8.8,2.9-13.7,2.7c-4.3-0.1-8.8-0.9-13,0c-1.6,0.3-5.4,1.3-4.6,3.7c1.1,3.1,6,0.7,8,1.2c0-0.3,0.1-0.7,0.1-1
			c-3.1,0-6.2,0-9.4,0C126.1,11.8,126.1,12.8,126.7,12.8L126.7,12.8z"/>
	</g>
</g>
<g>
	<g>
		<path class="st2" d="M28.5,82.1c1.5-2.4,3-6.9-0.9-7.8c-4.6-1.1-7.4,2.6-7.1,6.6c0.2,2.6,0.9,5.7,2.2,8c1.4,2.2,3,2.1,5.5,2.4
			c1.8,0.2,3.6,0.3,5.4,0.6c1.8,0.2,6,0.1,5.6,2.4c-0.6,3.3-8.4,6.9-11.1,8.4c-1.5,0.8-0.5,3.3,1,2.5c4.3-2.3,9.6-5.2,12.7-9
			c1.1-1.4,1.5-2.3,0.3-3.8c-2-2.8-6.8-2.9-9.8-3.2c-3.5-0.4-6.7-0.4-8.4-4c-0.5-1-0.8-2.7-0.8-3.8c-0.2-3.8,0.6-4.9,2.6-3.2
			c1.7,0.3,1.9,1.1,0.5,2.5C25.5,82,27.6,83.6,28.5,82.1L28.5,82.1z"/>
	</g>
	<g>
		<path class="st2" d="M39.3,83.5c1.2,1.6,4.4,6.1,7,4.7c1-0.6,1-1.7,0.8-2.7c-0.5-2-1.2-4-1.8-5.9c-0.7,0.5-1.3,1-2,1.6
			c2.8,2.1,5.8,3.8,8.9,5.4c1.5,0.8,2.5-1.7,1-2.5c-2.9-1.5-5.7-3.2-8.3-5.1c-1.1-0.8-2.4,0.4-2,1.6c0.3,1,0.6,2,0.9,3
			c0.1,0.3,1,2.6,0.9,2.7c0.3-0.2,0.6-0.3,0.9-0.5c-1.2,0.1-3.3-2.8-4-3.9C40.4,80.5,38.3,82.1,39.3,83.5L39.3,83.5z"/>
	</g>
	<g>
		<path class="st2" d="M52.1,73.4c-1-0.2-2.4-0.4-3.3,0.2c-0.5,0.3-0.9,0.8-0.8,1.4c0.2,1.7,1.4,3.4,2.3,4.8
			c0.9,1.4,1.9,2.7,3.5,3.3c3.3,1.4,6.6-0.5,9.3-2.3c1.4-0.9-0.2-3-1.6-2.1c-1.9,1.3-4.3,2.9-6.7,1.9c-1.7-0.7-4-4-4.1-5.9
			c-0.3,0.5-0.5,0.9-0.8,1.4c0.6-0.3,1.4-0.1,2,0C53.4,76.4,53.7,73.7,52.1,73.4L52.1,73.4z"/>
	</g>
	<g>
		<path class="st2" d="M46.8,61.8c7.2,6.5,14.4,13,21.6,19.6c1.3,1.1,2.8-1,1.6-2.1c-7.2-6.5-14.4-13-21.6-19.6
			C47.1,58.5,45.6,60.7,46.8,61.8L46.8,61.8z"/>
	</g>
	<g>
		<path class="st2" d="M60.2,68c0.5,1.4,0.9,2.7,1.5,4.1c0.4,1,0.7,2.3,1.4,3.1c0.5,0.5,1.2,0.7,1.9,0.2c1.6-1.2,2.6-0.4,3.8,0.7
			c1.2,1.2,2.8-0.9,1.6-2.1c-1.1-1-2.3-2.1-3.9-2.1c-1.4-0.1-2.1,0.7-3.2,1.4c0.6,0.1,1.2,0.2,1.9,0.2c-0.7-0.7-1-2.3-1.3-3.2
			c-0.4-1.1-0.8-2.2-1.2-3.3C62.1,65.4,59.7,66.4,60.2,68L60.2,68z"/>
	</g>
	<g>
		<path class="st2" d="M67.8,68.7C79,60,90.2,51.3,101.4,42.6c0.4-0.3-0.1-1-0.5-0.7C89.7,50.6,78.5,59.3,67.3,68
			C66.8,68.4,67.4,69.1,67.8,68.7L67.8,68.7z"/>
	</g>
	<g>
		<path class="st2" d="M57.9,48.1c2.1,2.8,4.3,5.5,6.4,8.3c2.3,2.9,4.7,5.7,6.4,9c0.1-0.2,0.2-0.4,0.2-0.6c-1.9,1-3.9,0.3-5.4-1.1
			c-0.7-0.6-1.3-1.3-1.7-2.2c-0.7-1.7-0.4-4.5,2.4-3.9c0.6,0.1,0.7-0.7,0.1-0.9c-3.3-0.8-4.4,3-3.1,5.4c1.5,2.8,5,5.1,8.1,3.4
			c0.2-0.1,0.4-0.4,0.2-0.6c-1.6-3.1-3.9-5.8-6-8.6c-2.3-3-4.6-5.9-7-8.9C58.3,47.1,57.6,47.6,57.9,48.1L57.9,48.1z"/>
	</g>
	<g>
		<path class="st2" d="M71.2,58.8c1-0.6,2.5-1.1,2.5-2.4c0-1.2-1-2.8-1.6-3.8c-1.2-1.7-3.9-2.7-4.7-0.1c-0.9,2.9,2.1,5.8,4.3,7.1
			c1,0.6,2.1,1.3,3.3,1.2c1.5-0.1,3.2-1,4.2-2c0.4-0.4-0.1-1.1-0.5-0.7c-1.2,1.1-3.1,2.1-4.7,1.7c-1.4-0.3-3.1-1.8-4-2.8
			c-0.6-0.7-1.2-1.4-1.5-2.2c-0.7-1.2,0-1.7,0.7-2.3c1.2,0.2,2.5,0,2.8,1.3c0.5,0.9,1.2,2.2,0.5,3.2c-0.3,0.4-1.3,0.8-1.7,1
			C70.2,58.3,70.7,59,71.2,58.8L71.2,58.8z"/>
	</g>
	<g>
		<path class="st2" d="M77.9,51.7c0.8-3.9-5.3-3.2-4.2-0.1c0.6,1.6,3.4,2,4.8,2.2c0.8,0.1,1.6,0.2,2.4,0.3c0.6,0.1,1.9-0.1,2.4,0.1
			c1.7,0.8,0.3,1.6-0.5,2.3c-0.9,0.8-2.3,2.1-3.6,1.9c-0.6-0.1-0.7,0.8-0.1,0.9c1.5,0.3,3.2-1.1,4.3-2c0.7-0.6,2.2-1.8,1.8-3
			c-0.4-1.1-1.9-0.9-2.8-1c-1.1-0.1-2.3-0.1-3.4-0.3c-0.7-0.1-1.5-0.3-2.2-0.5c-0.2-0.1-0.4-0.1-0.6-0.2C75,52,75.3,51.8,77,51.6
			C76.9,52.2,77.8,52.3,77.9,51.7L77.9,51.7z"/>
	</g>
	<g>
		<path class="st2" d="M80,46.3c1.5,2.4,3,4.7,5.4,6.2c0.5,0.3,1-0.4,0.5-0.7c-2.3-1.5-3.8-3.8-5.2-6.1C80.4,45.3,79.7,45.8,80,46.3
			L80,46.3z"/>
	</g>
	<g>
		<path class="st2" d="M76.8,44.7c0.7,1.3,1.5,3.4,3.2,3.4c0.8,0,2.4-0.8,2.5-1.7c0.1-1.6-2.8-2.2-3.7-2.6c-2.8-1.2-5.7-2.3-8.6-3.3
			c-0.3-0.1-0.8,0.2-0.6,0.6c0.2,0.4,0.4,0.8,0.6,1.1c0.3,0.5,1.1,0.2,0.8-0.3c-0.2-0.4-0.4-0.8-0.6-1.1c-0.2,0.2-0.4,0.4-0.6,0.6
			c2.4,0.8,4.8,1.7,7.1,2.6c1,0.4,2.4,0.8,3.3,1.4c0.5,0.3,1.1,0.5,1,1.3c-1.3,0.5-2.2,0.2-2.7-0.7c-0.3-0.5-0.6-1-0.9-1.6
			C77.4,43.9,76.5,44.2,76.8,44.7L76.8,44.7z"/>
	</g>
	<g>
		<path class="st2" d="M84.3,45.1c-0.2,1.9,0.7,4,2.3,5.2c1.2,0.8,3.6,0.7,4.3-0.7c0.8-1.5-1.3-2.9-2.4-3.4
			c-0.7-0.3-3.7-1.9-3.3,0.2c0.1,0.6,1,0.4,0.9-0.1c0-0.2,2.1,0.7,2.3,0.8c1,0.5,2.7,2,0.8,2.7c-2.5,0.9-4.2-2.3-4-4.5
			C85.2,44.6,84.3,44.5,84.3,45.1L84.3,45.1z"/>
	</g>
	<g>
		<path class="st2" d="M86.1,46.5c3.5,2.3,6.6,5.1,9.2,8.5c0.8,1.1,3,3.5,0.5,4.6c-0.5,0.2-1.6,0-2.1,0.1c-2.4,0-4.7,0-7.1,0
			c-0.6,0-0.7,0.9-0.1,0.9c2.9,0.1,6,0.2,8.9,0c1.5-0.1,2.6-0.7,2.6-2.4c-0.1-2.3-2.7-4.8-4.2-6.4c-2.1-2.3-4.5-4.2-7.1-5.9
			C86.1,45.5,85.6,46.2,86.1,46.5L86.1,46.5z"/>
	</g>
	<g>
		<path class="st2" d="M87.6,41.9c1.7,2.2,3.4,4.4,5.1,6.5c0.3,0.4,1,0,0.8-0.4c-0.4-0.9-0.9-1.5-1.7-2.2c-0.4-0.4-1.3-0.9-1.5-1.4
			c0-1.7,0.4-2.3,1.2-1.8c0.5,0.2,1,0.5,1.4,0.8c2.3,1.6,4,4.3,5.6,6.6c3.3,4.7,6.6,8.4,11.6,11.2c0.5,0.3,1-0.4,0.5-0.7
			c-3.7-2.1-6.8-4.6-9.3-8.1c-2.3-3.1-4.1-6.6-7-9.1c-1.1-0.9-3.9-3.1-5.1-1.2c-1.5,2.5,2.7,4.6,3.5,6.2c0.3-0.1,0.5-0.3,0.8-0.4
			c-1.7-2.2-3.4-4.4-5.1-6.5C87.9,40.9,87.2,41.5,87.6,41.9L87.6,41.9z"/>
	</g>
</g>
</svg>
